# xmcd CD database file
#
# Track frame offsets:
#	150
#	27978
#	48605
#	72188
#	94958
#	107198
#	133825
#	147520
#	167960
#	197473
#	205190
#	244682
#	264024
#
# Disc length: 3881 seconds
#
# Revision: 0
# Processed by: cddbd v1.5.2PL0 Copyright (c) Steve Scherf et al.
# Submitted via: CDex 1.51
#
DISCID=c00f270d
DTITLE=The Cinematic Orchestra - Ma Fleur
DYEAR=2007
DGENRE=New Age
TTITLE0=To Build a Home
TTITLE1=Familiar Ground
TTITLE2=Child Song
TTITLE3=Music Box
TTITLE4=Prelude
TTITLE5=As The Stars Fall
TTITLE6=Info You
TTITLE7=Ma Fleur
TTITLE8=Breathe
TTITLE9=That Home
TTITLE10=Time and Space
TTITLE11=Colours
TTITLE12=Flowers
EXTD=YEAR: 2007
EXTT0=
EXTT1=
EXTT2=
EXTT3=
EXTT4=
EXTT5=
EXTT6=
EXTT7=
EXTT8=
EXTT9=
EXTT10=
EXTT11=
EXTT12=
PLAYORDER=
